<?xml version="1.0" encoding="utf-8"?>
<!-- Generator: Adobe Illustrator 21.1.0, SVG Export Plug-In . SVG Version: 6.00 Build 0)  -->
<svg version="1.1" id="Layer_1" xmlns="http://www.w3.org/2000/svg" xmlns:xlink="http://www.w3.org/1999/xlink" x="0px" y="0px"
	 viewBox="0 0 285.7 46.3" style="enable-background:new 0 0 285.7 46.3;" xml:space="preserve">
<style type="text/css">
	.st0{fill:#FFFFFF;}
	.st1{fill:#231F20;}
</style>
<g>
	<polygon class="st0" points="78,0 78,46.1 90.1,35.7 90.2,0 	"/>
	<polygon class="st0" points="42.7,46.2 6.1,46.1 6.1,35.7 36.9,35.7 	"/>
	<polygon class="st0" points="78,46.1 51.5,46.1 57.4,35.7 90,35.7 	"/>
	<polygon class="st0" points="20.5,0.1 47,46.2 53.1,35.6 32.7,0.1 	"/>
	<polygon class="st0" points="20.4,0 0,35.5 6.1,46.2 32.6,0 	"/>
	<polygon class="st0" points="61.3,0 40.9,35.5 47,46.2 73.5,0 	"/>
</g>
<path class="st1" d="M243.2,19.8h-1"/>
<g>
	<g>
		<path class="st0" d="M99.5,45l8.3-23.8c0.1-0.4,0.4-0.7,0.7-1c0.3-0.2,0.7-0.3,1.2-0.3c0.4,0,0.8,0.1,1.2,0.3
			c0.4,0.2,0.6,0.6,0.7,1L120,45h-1.1l-3.3-9.3h-11.8l-3.3,9.3H99.5z M115.3,34.7l-4.6-13.1c-0.1-0.2-0.2-0.3-0.4-0.4
			c-0.2-0.1-0.4-0.2-0.6-0.2s-0.4,0.1-0.6,0.2s-0.3,0.3-0.4,0.4l-4.6,13.1H115.3z"/>
		<path class="st0" d="M120,46.3h-1.1c-0.5,0-1-0.3-1.2-0.8l-3-8.5h-10.1l-3,8.5c-0.2,0.5-0.7,0.9-1.2,0.9h-1.1
			c-0.4,0-0.8-0.2-1-0.5s-0.3-0.8-0.2-1.2l8.3-23.8c0.2-0.7,0.6-1.2,1.2-1.6c1.1-0.8,2.6-0.8,3.7,0c0.6,0.4,1,0.9,1.2,1.6l8.4,23.8
			c0.1,0.4,0.1,0.8-0.2,1.2C120.7,46.1,120.4,46.3,120,46.3 M105.9,33.4h7.6l-3.8-10.8L105.9,33.4z"/>
		<path class="st0" d="M121.2,19.9l8.4,23.5c0.1,0.2,0.2,0.3,0.3,0.4c0.2,0.1,0.4,0.2,0.6,0.2c0.2,0,0.4-0.1,0.6-0.2
			c0.2-0.1,0.3-0.3,0.3-0.5l8.5-23.5h1.1l-8.6,23.8c-0.1,0.4-0.4,0.7-0.7,0.9s-0.7,0.3-1.1,0.3c-0.4,0-0.8-0.1-1.2-0.3
			c-0.3-0.2-0.6-0.5-0.7-1l-8.5-23.8h1V19.9z"/>
		<path class="st0" d="M130.5,46.3c-0.7,0-1.3-0.2-1.8-0.6c-0.6-0.4-1-0.9-1.2-1.6L119,20.3c-0.1-0.4-0.1-0.8,0.1-1.2
			c0.2-0.3,0.6-0.5,1-0.5h1.1c0.5,0,1,0.3,1.2,0.8l8.2,22.8l8.2-22.8c0.2-0.5,0.7-0.8,1.2-0.8h1.1c0.4,0,0.8,0.2,1,0.6
			c0.2,0.3,0.3,0.8,0.1,1.2l-8.6,23.8c-0.2,0.6-0.6,1.2-1.2,1.6C131.8,46.1,131.2,46.3,130.5,46.3 M130.8,43L130.8,43L130.8,43z
			 M130.3,43L130.3,43L130.3,43z"/>
		<path class="st0" d="M159.2,36.7c0,2.3-0.8,4.3-2.4,5.9c-1.6,1.6-3.5,2.4-5.8,2.4c-2.2,0-4.2-0.8-5.7-2.4
			c-1.6-1.6-2.4-3.6-2.4-5.9h1c0,2,0.7,3.7,2.1,5.2c1.4,1.4,3.1,2.1,5.1,2.1s3.7-0.7,5.1-2.1c1.4-1.4,2.1-3.1,2.1-5.2V19.9h1v16.8
			H159.2z"/>
		<path class="st0" d="M151,46.3c-2.6,0-4.8-0.9-6.6-2.8c-1.8-1.9-2.8-4.2-2.8-6.8c0-0.7,0.6-1.3,1.3-1.3h1c0.7,0,1.3,0.6,1.3,1.3
			c0,1.7,0.6,3.1,1.7,4.3c1.2,1.2,2.5,1.8,4.2,1.8s3-0.6,4.2-1.8s1.7-2.6,1.7-4.3V19.9c0-0.7,0.6-1.3,1.3-1.3h1
			c0.7,0,1.3,0.6,1.3,1.3v16.8c0,2.6-0.9,4.9-2.7,6.8C155.8,45.4,153.6,46.3,151,46.3"/>
		<path class="st0" d="M165.2,28.4v8.3c0,2,0.7,3.7,2.1,5.2c1.4,1.4,3.1,2.1,5.1,2.1s3.7-0.7,5.1-2.1c1.4-1.4,2.1-3.1,2.1-5.2v-8.3
			h1v8.3c0,2.3-0.8,4.3-2.4,5.9c-1.6,1.6-3.5,2.4-5.8,2.4c-2.2,0-4.2-0.8-5.7-2.4c-1.6-1.6-2.4-3.6-2.4-5.9v-8.3
			C164.3,28.4,165.2,28.4,165.2,28.4z"/>
		<path class="st0" d="M172.4,46.3c-2.6,0-4.8-0.9-6.6-2.8c-1.8-1.9-2.8-4.2-2.8-6.8v-8.3c0-0.7,0.6-1.3,1.3-1.3h1
			c0.7,0,1.3,0.6,1.3,1.3v8.3c0,1.7,0.6,3.1,1.7,4.3c1.2,1.2,2.5,1.8,4.2,1.8c1.6,0,3-0.6,4.2-1.8s1.7-2.6,1.7-4.3v-8.3
			c0-0.7,0.6-1.3,1.3-1.3h1c0.7,0,1.3,0.6,1.3,1.3v8.3c0,2.6-0.9,4.9-2.7,6.8C177.2,45.4,175,46.3,172.4,46.3"/>
		<path class="st0" d="M200.4,45v-8.3c0-2-0.7-3.7-2.1-5.2c-1.4-1.4-3.1-2.1-5.1-2.1s-3.7,0.7-5.1,2.1c-1.4,1.4-2.1,3.1-2.1,5.1V45
			h-1v-8.3c0-2.3,0.8-4.2,2.4-5.8c1.6-1.6,3.5-2.4,5.7-2.4s4.2,0.8,5.8,2.4c1.6,1.6,2.4,3.6,2.4,5.9V45H200.4z"/>
		<path class="st0" d="M201.4,46.3h-1c-0.7,0-1.3-0.6-1.3-1.3v-8.3c0-1.7-0.6-3.1-1.7-4.3c-1.2-1.2-2.5-1.8-4.2-1.8
			c-1.6,0-3,0.6-4.2,1.8c-1.2,1.2-1.7,2.6-1.7,4.2V45c0,0.7-0.6,1.3-1.3,1.3h-1c-0.7,0-1.3-0.6-1.3-1.3v-8.4c0-2.6,0.9-4.9,2.8-6.7
			c1.8-1.9,4-2.8,6.6-2.8s4.8,0.9,6.7,2.8c1.8,1.9,2.7,4.1,2.7,6.8V45C202.6,45.8,202.1,46.3,201.4,46.3"/>
		<path class="st0" d="M218.2,43.8c-1.3,0.8-2.7,1.2-4.2,1.2c-2.2,0-4.2-0.8-5.7-2.4c-1.6-1.6-2.4-3.6-2.4-5.9
			c0-2.3,0.8-4.3,2.4-5.9c1.6-1.6,3.5-2.4,5.7-2.4c1.5,0,2.9,0.4,4.2,1.2c1.3,0.8,2.3,1.9,3,3.3l-0.9,0.5c-0.6-1.2-1.5-2.2-2.6-2.9
			c-1.1-0.7-2.4-1-3.7-1c-2,0-3.7,0.7-5.1,2.1c-1.4,1.4-2.1,3.2-2.1,5.2s0.7,3.7,2.1,5.2c1.4,1.4,3.1,2.1,5.1,2.1
			c1.3,0,2.6-0.4,3.7-1.1c1.1-0.7,2-1.7,2.6-2.9l0.9,0.5C220.5,42,219.5,43,218.2,43.8"/>
		<path class="st0" d="M213.9,46.3c-2.6,0-4.8-0.9-6.6-2.8c-1.8-1.9-2.8-4.2-2.8-6.8s0.9-4.9,2.8-6.8c1.8-1.9,4-2.8,6.6-2.8
			c1.7,0,3.4,0.5,4.9,1.4s2.7,2.2,3.5,3.8c0.2,0.3,0.2,0.7,0.1,1c-0.1,0.3-0.3,0.6-0.6,0.8l-0.9,0.5c-0.6,0.3-1.4,0.1-1.7-0.5
			c-0.5-1-1.2-1.8-2.2-2.4c-0.9-0.6-1.9-0.9-3-0.9c-1.6,0-3,0.6-4.2,1.8c-1.2,1.2-1.7,2.6-1.7,4.3s0.6,3.1,1.7,4.3
			c1.2,1.2,2.5,1.8,4.2,1.8c1.1,0,2.1-0.3,3-0.9c1-0.6,1.7-1.4,2.2-2.4c0.3-0.6,1.1-0.9,1.7-0.5l0.9,0.5c0.3,0.2,0.5,0.4,0.6,0.8
			c0.1,0.3,0.1,0.7-0.1,1c-0.8,1.6-2,2.8-3.5,3.8C217.3,45.9,215.7,46.3,213.9,46.3"/>
		<path class="st0" d="M226.7,19.9v8.5h9.6v1h-9.6v7.3c0,1.8,0.3,3.3,0.9,4.5c0.5,1.1,1.3,2,2.4,2.4c2,1,4.2,0.4,6.7-1.7l0.6,0.8
			c-1.3,1.1-2.7,1.9-4.1,2.2c-1.3,0.3-2.5,0.2-3.6-0.4c-1.2-0.5-2.1-1.5-2.8-2.8c-0.7-1.4-1-3-1-5V19.9H226.7z"/>
		<path class="st0" d="M231.8,46.3c-1,0-1.9-0.2-2.8-0.7c-1.4-0.6-2.5-1.8-3.3-3.3s-1.2-3.4-1.2-5.6V19.9c0-0.7,0.6-1.3,1.3-1.3h1
			c0.7,0,1.3,0.6,1.3,1.3v7.2h8.3c0.7,0,1.3,0.6,1.3,1.3v1c0,0.7-0.6,1.3-1.3,1.3H228v6c0,1.6,0.3,2.9,0.8,3.9
			c0.4,0.9,1,1.5,1.8,1.8c0.6,0.3,2.3,1.1,5.3-1.5c0.3-0.2,0.6-0.3,1-0.3s0.7,0.2,0.9,0.5l0.6,0.8c0.4,0.5,0.3,1.3-0.2,1.7
			c-1.5,1.3-3,2.1-4.6,2.4C232.9,46.3,232.3,46.3,231.8,46.3"/>
	</g>
	<path class="st0" d="M241.7,45h1V28.4h-1V45z M241.7,21h1v-1h-1V21z"/>
	<g>
		<path class="st0" d="M242.7,46.3h-1c-0.7,0-1.3-0.6-1.3-1.3V28.4c0-0.7,0.6-1.3,1.3-1.3h1c0.7,0,1.3,0.6,1.3,1.3V45
			C244,45.8,243.4,46.3,242.7,46.3 M242.7,22.2h-1c-0.7,0-1.3-0.6-1.3-1.3v-1c0-0.7,0.6-1.3,1.3-1.3h1c0.7,0,1.3,0.6,1.3,1.3v1
			C244,21.7,243.4,22.2,242.7,22.2"/>
		<path class="st0" d="M261.2,30.9c1.6,1.6,2.4,3.6,2.4,5.9s-0.8,4.3-2.4,5.9c-1.6,1.6-3.5,2.4-5.8,2.4c-2.2,0-4.2-0.8-5.7-2.4
			c-1.6-1.6-2.4-3.6-2.4-5.9c0-2.3,0.8-4.3,2.4-5.9c1.6-1.6,3.5-2.4,5.7-2.4C257.7,28.4,259.6,29.2,261.2,30.9 M255.4,29.4
			c-2,0-3.7,0.7-5.1,2.1c-1.4,1.4-2.1,3.2-2.1,5.2s0.7,3.7,2.1,5.2c1.4,1.4,3.1,2.1,5.1,2.1s3.7-0.7,5.1-2.1
			c1.4-1.4,2.1-3.1,2.1-5.2c0-2-0.7-3.7-2.1-5.2C259.1,30.1,257.4,29.4,255.4,29.4"/>
		<path class="st0" d="M255.4,46.3c-2.6,0-4.8-0.9-6.6-2.8c-1.8-1.9-2.8-4.2-2.8-6.8s0.9-4.9,2.8-6.8c1.8-1.9,4-2.8,6.6-2.8
			s4.8,0.9,6.7,2.8c1.8,1.9,2.7,4.1,2.7,6.8s-0.9,4.9-2.7,6.8C260.2,45.4,258,46.3,255.4,46.3 M255.4,30.7c-1.6,0-3,0.6-4.2,1.8
			c-1.2,1.2-1.7,2.6-1.7,4.3s0.6,3.1,1.7,4.3c1.2,1.2,2.5,1.8,4.2,1.8c1.6,0,3-0.6,4.2-1.8s1.7-2.6,1.7-4.3s-0.6-3.1-1.7-4.3
			C258.4,31.3,257.1,30.7,255.4,30.7"/>
		<path class="st0" d="M283.4,45v-8.3c0-2-0.7-3.7-2.1-5.2c-1.4-1.4-3.1-2.1-5.1-2.1s-3.7,0.7-5.1,2.1c-1.4,1.4-2.1,3.1-2.1,5.1V45
			h-1v-8.3c0-2.3,0.8-4.2,2.4-5.8c1.6-1.6,3.5-2.4,5.7-2.4c2.3,0,4.2,0.8,5.8,2.4c1.6,1.6,2.4,3.6,2.4,5.9V45H283.4z"/>
		<path class="st0" d="M284.4,46.3h-1c-0.7,0-1.3-0.6-1.3-1.3v-8.3c0-1.7-0.6-3.1-1.7-4.3c-1.2-1.2-2.5-1.8-4.2-1.8
			c-1.6,0-3,0.6-4.2,1.8c-1.2,1.2-1.7,2.6-1.7,4.2V45c0,0.7-0.6,1.3-1.3,1.3h-1c-0.7,0-1.3-0.6-1.3-1.3v-8.4c0-2.6,0.9-4.9,2.8-6.7
			c1.8-1.9,4-2.8,6.6-2.8s4.8,0.9,6.7,2.8c1.8,1.9,2.7,4.1,2.7,6.8V45C285.7,45.8,285.1,46.3,284.4,46.3"/>
	</g>
</g>
</svg>
