<svg width="346" height="47" viewBox="0 0 346 47" version="1.1" xmlns="http://www.w3.org/2000/svg" xmlns:xlink="http://www.w3.org/1999/xlink">
<title>avjunction-logo_header</title>
<desc>Created using Figma</desc>
<g id="Canvas" transform="translate(340 329)">
<g id="avjunction-logo_header">
<g id="avjunction-logo_header">
<g id="Group">
<g id="Vector">
<use xlink:href="#path0_fill" transform="translate(-262 -329)" fill="#DE4E28"/>
</g>
<g id="Vector">
<use xlink:href="#path1_fill" transform="translate(-333.9 -293.3)" fill="#0F6990"/>
</g>
<g id="Vector">
<use xlink:href="#path2_fill" transform="translate(-288.5 -293.3)" fill="#EF6F3A"/>
</g>
<g id="Vector">
<use xlink:href="#path3_fill" transform="translate(-319.5 -328.9)" fill="#0F6990"/>
</g>
<g id="Vector">
<use xlink:href="#path4_fill" transform="translate(-340 -329)" fill="#48ABDA"/>
</g>
<g id="Vector">
<use xlink:href="#path5_fill" transform="translate(-299.1 -329)" fill="#48ABDA"/>
</g>
</g>
<g id="Vector">
<use xlink:href="#path6_fill" transform="translate(-97.8 -309.2)" fill="#231F20"/>
</g>
<g id="Group">
<g id="Group">
<g id="Vector">
<use xlink:href="#path7_fill" transform="translate(-240.5 -309.1)" fill="#231F20"/>
</g>
<g id="Vector">
<use xlink:href="#path8_fill" transform="translate(-241.939 -310.3)" fill="#231F20"/>
</g>
<g id="Vector">
<use xlink:href="#path9_fill" transform="translate(-219.8 -309.3)" fill="#231F20"/>
</g>
<g id="Vector">
<use xlink:href="#path10_fill" transform="translate(-221.066 -310.4)" fill="#231F20"/>
</g>
<g id="Vector">
<use xlink:href="#path11_fill" transform="translate(-197.1 -309.1)" fill="#231F20"/>
</g>
<g id="Vector">
<use xlink:href="#path12_fill" transform="translate(-198.4 -310.4)" fill="#231F20"/>
</g>
<g id="Vector">
<use xlink:href="#path13_fill" transform="translate(-175.7 -300.6)" fill="#231F20"/>
</g>
<g id="Vector">
<use xlink:href="#path14_fill" transform="translate(-177 -301.9)" fill="#231F20"/>
</g>
<g id="Vector">
<use xlink:href="#path15_fill" transform="translate(-155 -300.5)" fill="#231F20"/>
</g>
<g id="Vector">
<use xlink:href="#path16_fill" transform="translate(-156.3 -301.9)" fill="#231F20"/>
</g>
<g id="Vector">
<use xlink:href="#path17_fill" transform="translate(-134.1 -300.6)" fill="#231F20"/>
</g>
<g id="Vector">
<use xlink:href="#path18_fill" transform="translate(-135.5 -301.9)" fill="#231F20"/>
</g>
<g id="Vector">
<use xlink:href="#path19_fill" transform="translate(-114.2 -309.1)" fill="#231F20"/>
</g>
<g id="Vector">
<use xlink:href="#path20_fill" transform="translate(-115.5 -310.4)" fill="#231F20"/>
</g>
</g>
<g id="Vector">
<use xlink:href="#path21_fill" transform="translate(-98.3 -309)" fill="#231F20"/>
</g>
<g id="Group">
<g id="Vector">
<use xlink:href="#path22_fill" transform="translate(-99.6 -310.4)" fill="#231F20"/>
</g>
<g id="Vector">
<use xlink:href="#path23_fill" transform="translate(-92.7 -300.508)" fill="#231F20"/>
</g>
<g id="Vector">
<use xlink:href="#path24_fill" transform="translate(-94 -301.9)" fill="#231F20"/>
</g>
<g id="Vector">
<use xlink:href="#path25_fill" transform="translate(-72 -300.5)" fill="#231F20"/>
</g>
<g id="Vector">
<use xlink:href="#path26_fill" transform="translate(-73.3 -301.9)" fill="#231F20"/>
</g>
</g>
</g>
</g>
<g id="Group">
<g id="Rectangle">
<use xlink:href="#path27_fill" transform="translate(-44 -310.651)" fill="#DE4E28"/>
</g>
<g id="BETA">
<use xlink:href="#path28_fill" transform="translate(-39.9459 -312)" fill="#FFFFFF"/>
</g>
<g id="Vector">
<use xlink:href="#path29_fill" transform="translate(-44 -289.07)" fill="#EF6F3A"/>
</g>
</g>
</g>
</g>
<defs>
<path id="path0_fill" d="M 0 0L 0 46.1L 12.1 35.7L 12.2 0L 0 0Z"/>
<path id="path1_fill" d="M 36.6 10.5L -9.53674e-08 10.4L -9.53674e-08 7.62939e-07L 30.8 7.62939e-07L 36.6 10.5Z"/>
<path id="path2_fill" d="M 26.5 10.4L 0 10.4L 5.9 7.62939e-07L 38.5 7.62939e-07L 26.5 10.4Z"/>
<path id="path3_fill" d="M 0 1.49012e-09L 26.5 46.1L 32.6 35.5L 12.2 1.49012e-09L 0 1.49012e-09Z"/>
<path id="path4_fill" d="M 20.4 0L 0 35.5L 6.1 46.2L 32.6 0L 20.4 0Z"/>
<path id="path5_fill" d="M 20.4 0L 1.52588e-06 35.5L 6.1 46.2L 32.6 0L 20.4 0Z"/>
<path id="path6_fill" d="M 0.999997 -7.62939e-07L -3.05176e-06 -7.62939e-07Z"/>
<path id="path7_fill" d="M 0 25.1L 8.3 1.3C 8.4 0.900001 8.7 0.600001 9 0.300001C 9.3 0.100001 9.7 -3.8147e-07 10.2 -3.8147e-07C 10.6 -3.8147e-07 11 0.100001 11.4 0.300001C 11.8 0.500001 12 0.900001 12.1 1.3L 20.5 25.1L 19.4 25.1L 16.1 15.8L 4.3 15.8L 1 25.1L 0 25.1ZM 15.8 14.8L 11.2 1.7C 11.1 1.5 11 1.4 10.8 1.3C 10.6 1.2 10.4 1.1 10.2 1.1C 10 1.1 9.8 1.2 9.6 1.3C 9.4 1.4 9.3 1.6 9.2 1.7L 4.6 14.8L 15.8 14.8Z"/>
<path id="path8_fill" d="M 21.9392 27.6L 20.8392 27.6C 20.3392 27.6 19.8392 27.3 19.6392 26.8L 16.6392 18.3L 6.53923 18.3L 3.53923 26.8C 3.33923 27.3 2.83923 27.7 2.33923 27.7L 1.23923 27.7C 0.839233 27.7 0.439234 27.5 0.239234 27.2C 0.0392335 26.9 -0.060771 26.4 0.039229 26L 8.33923 2.2C 8.53923 1.5 8.93923 0.999999 9.53923 0.599999C 10.6392 -0.200001 12.1392 -0.200001 13.2392 0.599999C 13.8392 0.999999 14.2392 1.5 14.4392 2.2L 22.8392 26C 22.9392 26.4 22.9392 26.8 22.6392 27.2C 22.6392 27.4 22.3392 27.6 21.9392 27.6ZM 7.83923 14.7L 15.4392 14.7L 11.6392 3.9L 7.83923 14.7Z"/>
<path id="path9_fill" d="M 0.999997 0.2L 9.40001 23.7C 9.50001 23.9 9.59999 24 9.69999 24.1C 9.89999 24.2 10.1 24.3 10.3 24.3C 10.5 24.3 10.7 24.2 10.9 24.1C 11.1 24 11.2 23.8 11.2 23.6L 19.7 0.0999992L 20.8 0.0999992L 12.2 23.9C 12.1 24.3 11.8 24.6 11.5 24.8C 11.2 25 10.8 25.1 10.4 25.1C 10 25.1 9.59999 25 9.19999 24.8C 8.89999 24.6 8.6 24.3 8.5 23.8L -3.05176e-06 7.62939e-07L 0.999997 7.62939e-07L 0.999997 0.2Z"/>
<path id="path10_fill" d="M 11.5657 27.7C 10.8657 27.7 10.2657 27.5 9.76568 27.1C 9.16568 26.7 8.76569 26.2 8.56569 25.5L 0.0656854 1.7C -0.0343146 1.3 -0.0343161 0.9 0.165684 0.5C 0.365684 0.2 0.765684 3.8147e-07 1.16568 3.8147e-07L 2.26568 3.8147e-07C 2.76568 3.8147e-07 3.26569 0.3 3.46569 0.8L 11.6657 23.6L 19.8657 0.8C 20.0657 0.3 20.5657 3.8147e-07 21.0657 3.8147e-07L 22.1657 3.8147e-07C 22.5657 3.8147e-07 22.9657 0.200001 23.1657 0.600001C 23.3657 0.900001 23.4657 1.4 23.2657 1.8L 14.6657 25.6C 14.4657 26.2 14.0657 26.8 13.4657 27.2C 12.8657 27.5 12.2657 27.7 11.5657 27.7Z"/>
<path id="path11_fill" d="M 16.3 16.8C 16.3 19.1 15.5 21.1 13.9 22.7C 12.3 24.3 10.4 25.1 8.1 25.1C 5.9 25.1 3.9 24.3 2.4 22.7C 0.800003 21.1 -6.10352e-06 19.1 -6.10352e-06 16.8L 0.999994 16.8C 0.999994 18.8 1.7 20.5 3.1 22C 4.5 23.4 6.20001 24.1 8.20001 24.1C 10.2 24.1 11.9 23.4 13.3 22C 14.7 20.6 15.4 18.9 15.4 16.8L 15.4 -3.8147e-07L 16.4 -3.8147e-07L 16.4 16.8L 16.3 16.8Z"/>
<path id="path12_fill" d="M 9.4 27.7C 6.8 27.7 4.59999 26.8 2.79999 24.9C 0.999994 23 6.10352e-06 20.7 6.10352e-06 18.1C 6.10352e-06 17.4 0.599994 16.8 1.29999 16.8L 2.29999 16.8C 2.99999 16.8 3.6 17.4 3.6 18.1C 3.6 19.8 4.19999 21.2 5.29999 22.4C 6.49999 23.6 7.80001 24.2 9.50001 24.2C 11.2 24.2 12.5 23.6 13.7 22.4C 14.9 21.2 15.4 19.8 15.4 18.1L 15.4 1.3C 15.4 0.6 16 3.8147e-07 16.7 3.8147e-07L 17.7 3.8147e-07C 18.4 3.8147e-07 19 0.6 19 1.3L 19 18.1C 19 20.7 18.1 23 16.3 24.9C 14.2 26.8 12 27.7 9.4 27.7Z"/>
<path id="path13_fill" d="M 0.899997 -3.8147e-07L 0.899997 8.3C 0.899997 10.3 1.6 12 3 13.5C 4.4 14.9 6.09999 15.6 8.09999 15.6C 10.1 15.6 11.8 14.9 13.2 13.5C 14.6 12.1 15.3 10.4 15.3 8.3L 15.3 -3.8147e-07L 16.3 -3.8147e-07L 16.3 8.3C 16.3 10.6 15.5 12.6 13.9 14.2C 12.3 15.8 10.4 16.6 8.09999 16.6C 5.89999 16.6 3.9 15.8 2.4 14.2C 0.799997 12.6 3.05176e-06 10.6 3.05176e-06 8.3L 3.05176e-06 -3.8147e-07L 0.899997 -3.8147e-07L 0.899997 -3.8147e-07Z"/>
<path id="path14_fill" d="M 9.39999 19.2C 6.79999 19.2 4.6 18.3 2.8 16.4C 1 14.5 0 12.2 0 9.6L 0 1.3C 0 0.6 0.600003 3.8147e-07 1.3 3.8147e-07L 2.3 3.8147e-07C 3 3.8147e-07 3.60001 0.6 3.60001 1.3L 3.60001 9.6C 3.60001 11.3 4.2 12.7 5.3 13.9C 6.5 15.1 7.8 15.7 9.5 15.7C 11.1 15.7 12.5 15.1 13.7 13.9C 14.9 12.7 15.4 11.3 15.4 9.6L 15.4 1.3C 15.4 0.6 16 3.8147e-07 16.7 3.8147e-07L 17.7 3.8147e-07C 18.4 3.8147e-07 19 0.6 19 1.3L 19 9.6C 19 12.2 18.1 14.5 16.3 16.4C 14.2 18.3 12 19.2 9.39999 19.2Z"/>
<path id="path15_fill" d="M 15.4 16.5L 15.4 8.2C 15.4 6.2 14.7 4.5 13.3 3C 11.9 1.6 10.2 0.9 8.2 0.9C 6.2 0.9 4.50001 1.6 3.10001 3C 1.70001 4.4 1 6.1 1 8.1L 1 16.5L -2.84217e-14 16.5L -2.84217e-14 8.2C -2.84217e-14 5.9 0.799994 4 2.39999 2.4C 3.99999 0.8 5.90001 -3.55271e-15 8.10001 -3.55271e-15C 10.3 -3.55271e-15 12.3 0.8 13.9 2.4C 15.5 4 16.3 6 16.3 8.3L 16.3 16.5L 15.4 16.5Z"/>
<path id="path16_fill" d="M 17.7 19.2L 16.7 19.2C 16 19.2 15.4 18.6 15.4 17.9L 15.4 9.6C 15.4 7.9 14.8 6.5 13.7 5.3C 12.5 4.1 11.2 3.5 9.5 3.5C 7.9 3.5 6.5 4.1 5.3 5.3C 4.1 6.5 3.6 7.9 3.6 9.5L 3.6 17.9C 3.6 18.6 3 19.2 2.3 19.2L 1.3 19.2C 0.6 19.2 -3.05176e-06 18.6 -3.05176e-06 17.9L -3.05176e-06 9.5C -3.05176e-06 6.9 0.9 4.6 2.8 2.8C 4.6 0.9 6.80001 3.8147e-07 9.40001 3.8147e-07C 12 3.8147e-07 14.2 0.9 16.1 2.8C 17.9 4.7 18.8 6.9 18.8 9.6L 18.8 17.9C 18.9 18.7 18.4 19.2 17.7 19.2Z"/>
<path id="path17_fill" d="M 12.3 15.4C 11 16.2 9.6 16.6 8.1 16.6C 5.9 16.6 3.9 15.8 2.4 14.2C 0.800003 12.6 -6.10352e-06 10.6 -6.10352e-06 8.3C -6.10352e-06 6 0.800003 4 2.4 2.4C 4 0.799999 5.9 -3.8147e-07 8.1 -3.8147e-07C 9.6 -3.8147e-07 11 0.4 12.3 1.2C 13.6 2 14.6 3.1 15.3 4.5L 14.4 5C 13.8 3.8 12.9 2.8 11.8 2.1C 10.7 1.4 9.4 1.1 8.1 1.1C 6.1 1.1 4.39999 1.8 2.99999 3.2C 1.59999 4.6 0.900003 6.4 0.900003 8.4C 0.900003 10.4 1.59999 12.1 2.99999 13.6C 4.39999 15 6.1 15.7 8.1 15.7C 9.4 15.7 10.7 15.3 11.8 14.6C 12.9 13.9 13.8 12.9 14.4 11.7L 15.3 12.2C 14.6 13.6 13.6 14.6 12.3 15.4Z"/>
<path id="path18_fill" d="M 9.39999 19.2C 6.79999 19.2 4.6 18.3 2.8 16.4C 1 14.5 0 12.2 0 9.6C 0 7 0.900003 4.7 2.8 2.8C 4.6 0.9 6.79999 3.8147e-07 9.39999 3.8147e-07C 11.1 3.8147e-07 12.8 0.5 14.3 1.4C 15.8 2.3 17 3.6 17.8 5.2C 18 5.5 18 5.9 17.9 6.2C 17.8 6.5 17.6 6.8 17.3 7L 16.4 7.5C 15.8 7.8 15 7.6 14.7 7C 14.2 6 13.5 5.2 12.5 4.6C 11.6 4 10.6 3.7 9.5 3.7C 7.9 3.7 6.5 4.3 5.3 5.5C 4.1 6.7 3.60001 8.1 3.60001 9.8C 3.60001 11.5 4.2 12.9 5.3 14.1C 6.5 15.3 7.8 15.9 9.5 15.9C 10.6 15.9 11.6 15.6 12.5 15C 13.5 14.4 14.2 13.6 14.7 12.6C 15 12 15.8 11.7 16.4 12.1L 17.3 12.6C 17.6 12.8 17.8 13 17.9 13.4C 18 13.7 18 14.1 17.8 14.4C 17 16 15.8 17.2 14.3 18.2C 12.8 18.8 11.2 19.2 9.39999 19.2Z"/>
<path id="path19_fill" d="M 0.899997 -3.8147e-07L 0.899997 8.5L 10.5 8.5L 10.5 9.5L 0.899997 9.5L 0.899997 16.8C 0.899997 18.6 1.20001 20.1 1.80001 21.3C 2.30001 22.4 3.1 23.3 4.2 23.7C 6.2 24.7 8.4 24.1 10.9 22L 11.5 22.8C 10.2 23.9 8.8 24.7 7.4 25C 6.1 25.3 4.90001 25.2 3.80001 24.6C 2.60001 24.1 1.7 23.1 1 21.8C 0.300003 20.4 3.05176e-06 18.8 3.05176e-06 16.8L 3.05176e-06 -3.8147e-07L 0.899997 -3.8147e-07Z"/>
<path id="path20_fill" d="M 7.3 27.7C 6.3 27.7 5.4 27.5 4.5 27C 3.1 26.4 2 25.2 1.2 23.7C 0.399997 22.2 0 20.3 0 18.1L 0 1.3C 0 0.6 0.600003 3.8147e-07 1.3 3.8147e-07L 2.3 3.8147e-07C 3 3.8147e-07 3.60001 0.6 3.60001 1.3L 3.60001 8.5L 11.9 8.5C 12.6 8.5 13.2 9.1 13.2 9.8L 13.2 10.8C 13.2 11.5 12.6 12.1 11.9 12.1L 3.5 12.1L 3.5 18.1C 3.5 19.7 3.8 21 4.3 22C 4.7 22.9 5.30001 23.5 6.10001 23.8C 6.70001 24.1 8.39999 24.9 11.4 22.3C 11.7 22.1 12 22 12.4 22C 12.8 22 13.1 22.2 13.3 22.5L 13.9 23.3C 14.3 23.8 14.2 24.6 13.7 25C 12.2 26.3 10.7 27.1 9.10001 27.4C 8.40001 27.7 7.8 27.7 7.3 27.7Z"/>
<path id="path21_fill" d="M -3.05176e-06 25L 0.999997 25L 0.999997 8.4L -3.05176e-06 8.4L -3.05176e-06 25ZM -3.05176e-06 1L 0.999997 1L 0.999997 0L -3.05176e-06 0L -3.05176e-06 1Z"/>
<path id="path22_fill" d="M 2.3 27.7L 1.3 27.7C 0.599997 27.7 -6.10352e-06 27.1 -6.10352e-06 26.4L -6.10352e-06 9.8C -6.10352e-06 9.1 0.599997 8.5 1.3 8.5L 2.3 8.5C 3 8.5 3.6 9.1 3.6 9.8L 3.6 26.4C 3.6 27.2 3 27.7 2.3 27.7ZM 2.3 3.6L 1.3 3.6C 0.599997 3.6 -6.10352e-06 3 -6.10352e-06 2.3L -6.10352e-06 1.3C -6.10352e-06 0.6 0.599997 3.8147e-07 1.3 3.8147e-07L 2.3 3.8147e-07C 3 3.8147e-07 3.6 0.6 3.6 1.3L 3.6 2.3C 3.6 3.1 3 3.6 2.3 3.6Z"/>
<path id="path23_fill" d="M 13.9 2.40833C 15.5 4.00833 16.3 6.00833 16.3 8.30833C 16.3 10.6083 15.5 12.6083 13.9 14.2083C 12.3 15.8083 10.4 16.6083 8.09999 16.6083C 5.89999 16.6083 3.9 15.8083 2.4 14.2083C 0.799997 12.6083 3.05176e-06 10.6083 3.05176e-06 8.30833C 3.05176e-06 6.00833 0.799997 4.00833 2.4 2.40833C 4 0.808333 5.89999 0.00833333 8.09999 0.00833333C 10.4 -0.0916667 12.3 0.708333 13.9 2.40833ZM 8.09999 0.908333C 6.09999 0.908333 4.4 1.60833 3 3.00833C 1.6 4.40833 0.899997 6.20833 0.899997 8.20833C 0.899997 10.2083 1.6 11.9083 3 13.4083C 4.4 14.8083 6.09999 15.5083 8.09999 15.5083C 10.1 15.5083 11.8 14.8083 13.2 13.4083C 14.6 12.0083 15.3 10.3083 15.3 8.20833C 15.3 6.20833 14.6 4.50833 13.2 3.00833C 11.8 1.60833 10.1 0.908333 8.09999 0.908333Z"/>
<path id="path24_fill" d="M 9.39999 19.2C 6.79999 19.2 4.6 18.3 2.8 16.4C 1 14.5 0 12.2 0 9.6C 0 7 0.900003 4.7 2.8 2.8C 4.6 0.9 6.79999 3.8147e-07 9.39999 3.8147e-07C 12 3.8147e-07 14.2 0.9 16.1 2.8C 17.9 4.7 18.8 6.9 18.8 9.6C 18.8 12.3 17.9 14.5 16.1 16.4C 14.2 18.3 12 19.2 9.39999 19.2ZM 9.39999 3.6C 7.79999 3.6 6.4 4.2 5.2 5.4C 4 6.6 3.5 8 3.5 9.7C 3.5 11.4 4.1 12.8 5.2 14C 6.4 15.2 7.69999 15.8 9.39999 15.8C 11 15.8 12.4 15.2 13.6 14C 14.8 12.8 15.3 11.4 15.3 9.7C 15.3 8 14.7 6.6 13.6 5.4C 12.4 4.2 11.1 3.6 9.39999 3.6Z"/>
<path id="path25_fill" d="M 15.4 16.5L 15.4 8.2C 15.4 6.2 14.7 4.5 13.3 3C 11.9 1.6 10.2 0.9 8.20001 0.9C 6.20001 0.9 4.50001 1.6 3.10001 3C 1.70001 4.4 1 6.1 1 8.1L 1 16.5L 1.13687e-13 16.5L 1.13687e-13 8.2C 1.13687e-13 5.9 0.799994 4 2.39999 2.4C 3.99999 0.8 5.90001 -3.55271e-15 8.10001 -3.55271e-15C 10.4 -3.55271e-15 12.3 0.8 13.9 2.4C 15.5 4 16.3 6 16.3 8.3L 16.3 16.5L 15.4 16.5Z"/>
<path id="path26_fill" d="M 17.7 19.2L 16.7 19.2C 16 19.2 15.4 18.6 15.4 17.9L 15.4 9.6C 15.4 7.9 14.8 6.5 13.7 5.3C 12.5 4.1 11.2 3.5 9.50001 3.5C 7.90001 3.5 6.5 4.1 5.3 5.3C 4.1 6.5 3.59999 7.9 3.59999 9.5L 3.59999 17.9C 3.59999 18.6 3 19.2 2.3 19.2L 1.3 19.2C 0.6 19.2 1.2207e-05 18.6 1.2207e-05 17.9L 1.2207e-05 9.5C 1.2207e-05 6.9 0.9 4.6 2.8 2.8C 4.6 0.9 6.80001 3.8147e-07 9.40001 3.8147e-07C 12 3.8147e-07 14.2 0.9 16.1 2.8C 17.9 4.7 18.8 6.9 18.8 9.6L 18.8 17.9C 19 18.7 18.4 19.2 17.7 19.2Z"/>
<path id="path27_fill" d="M 0 0L 50 0L 50 21.5814L 0 21.5814L 0 0Z"/>
<path id="path28_fill" d="M 1.50781 5.57812L 4.89844 5.57812C 6.47135 5.57812 7.60677 5.80729 8.30469 6.26562C 9.00781 6.72396 9.35938 7.44792 9.35938 8.4375C 9.35938 9.10417 9.1875 9.65885 8.84375 10.1016C 8.5 10.5443 8.00521 10.8229 7.35938 10.9375L 7.35938 11.0156C 8.16146 11.1667 8.75 11.4661 9.125 11.9141C 9.50521 12.3568 9.69531 12.9583 9.69531 13.7188C 9.69531 14.7448 9.33594 15.5495 8.61719 16.1328C 7.90365 16.7109 6.90885 17 5.63281 17L 1.50781 17L 1.50781 5.57812ZM 3.375 10.2969L 5.17188 10.2969C 5.95312 10.2969 6.52344 10.1745 6.88281 9.92969C 7.24219 9.67969 7.42188 9.25781 7.42188 8.66406C 7.42188 8.1276 7.22656 7.73958 6.83594 7.5C 6.45052 7.26042 5.83594 7.14062 4.99219 7.14062L 3.375 7.14062L 3.375 10.2969ZM 3.375 11.8125L 3.375 15.4297L 5.35938 15.4297C 6.14062 15.4297 6.72917 15.2812 7.125 14.9844C 7.52604 14.6823 7.72656 14.2083 7.72656 13.5625C 7.72656 12.9688 7.52344 12.5286 7.11719 12.2422C 6.71094 11.9557 6.09375 11.8125 5.26562 11.8125L 3.375 11.8125ZM 18.5312 17L 12.0703 17L 12.0703 5.57812L 18.5312 5.57812L 18.5312 7.15625L 13.9375 7.15625L 13.9375 10.2656L 18.2422 10.2656L 18.2422 11.8281L 13.9375 11.8281L 13.9375 15.4141L 18.5312 15.4141L 18.5312 17ZM 24.9531 17L 23.0859 17L 23.0859 7.17969L 19.7266 7.17969L 19.7266 5.57812L 28.3125 5.57812L 28.3125 7.17969L 24.9531 7.17969L 24.9531 17ZM 37.1562 17L 36.0156 13.8281L 31.6484 13.8281L 30.5312 17L 28.5625 17L 32.8359 5.53125L 34.8672 5.53125L 39.1406 17L 37.1562 17ZM 35.5234 12.2188L 34.4531 9.10938C 34.375 8.90104 34.2656 8.57292 34.125 8.125C 33.9896 7.67708 33.8958 7.34896 33.8438 7.14062C 33.7031 7.78125 33.4974 8.48177 33.2266 9.24219L 32.1953 12.2188L 35.5234 12.2188Z"/>
<path id="path29_fill" d="M 6.08108 0L 0 0L 6.08108 6.06977L 6.08108 0Z"/>
</defs>
</svg>
